<svg id="visual" viewBox="0 0 960 300" width="960" height="300" xmlns="http://www.w3.org/2000/svg" xmlns:xlink="http://www.w3.org/1999/xlink" version="1.1"><path d="M0 217L22.8 212.2C45.7 207.3 91.3 197.7 137 194C182.7 190.3 228.3 192.7 274 190.5C319.7 188.3 365.3 181.7 411.2 184.7C457 187.7 503 200.3 548.8 202C594.7 203.7 640.3 194.3 686 189C731.7 183.7 777.3 182.3 823 188.7C868.7 195 914.3 209 937.2 216L960 223L960 301L937.2 301C914.3 301 868.7 301 823 301C777.3 301 731.7 301 686 301C640.3 301 594.7 301 548.8 301C503 301 457 301 411.2 301C365.3 301 319.7 301 274 301C228.3 301 182.7 301 137 301C91.3 301 45.7 301 22.8 301L0 301Z" fill="#fed7aa"></path><path d="M0 237L22.8 236C45.7 235 91.3 233 137 228.3C182.7 223.7 228.3 216.3 274 215.5C319.7 214.7 365.3 220.3 411.2 219.8C457 219.3 503 212.7 548.8 209.3C594.7 206 640.3 206 686 210.5C731.7 215 777.3 224 823 223C868.7 222 914.3 211 937.2 205.5L960 200L960 301L937.2 301C914.3 301 868.7 301 823 301C777.3 301 731.7 301 686 301C640.3 301 594.7 301 548.8 301C503 301 457 301 411.2 301C365.3 301 319.7 301 274 301C228.3 301 182.7 301 137 301C91.3 301 45.7 301 22.8 301L0 301Z" fill="#ffdfba"></path><path d="M0 221L22.8 221.2C45.7 221.3 91.3 221.7 137 225C182.7 228.3 228.3 234.7 274 236.7C319.7 238.7 365.3 236.3 411.2 236.8C457 237.3 503 240.7 548.8 242.8C594.7 245 640.3 246 686 244.7C731.7 243.3 777.3 239.7 823 235.3C868.7 231 914.3 226 937.2 223.5L960 221L960 301L937.2 301C914.3 301 868.7 301 823 301C777.3 301 731.7 301 686 301C640.3 301 594.7 301 548.8 301C503 301 457 301 411.2 301C365.3 301 319.7 301 274 301C228.3 301 182.7 301 137 301C91.3 301 45.7 301 22.8 301L0 301Z" fill="#ffe7cb"></path><path d="M0 264L22.8 262.7C45.7 261.3 91.3 258.7 137 259.7C182.7 260.7 228.3 265.3 274 266.3C319.7 267.3 365.3 264.7 411.2 260.5C457 256.3 503 250.7 548.8 252.2C594.7 253.7 640.3 262.3 686 264.2C731.7 266 777.3 261 823 259.5C868.7 258 914.3 260 937.2 261L960 262L960 301L937.2 301C914.3 301 868.7 301 823 301C777.3 301 731.7 301 686 301C640.3 301 594.7 301 548.8 301C503 301 457 301 411.2 301C365.3 301 319.7 301 274 301C228.3 301 182.7 301 137 301C91.3 301 45.7 301 22.8 301L0 301Z" fill="#ffefdc"></path><path d="M0 267L22.8 269.5C45.7 272 91.3 277 137 276.2C182.7 275.3 228.3 268.7 274 266.5C319.7 264.3 365.3 266.7 411.2 267.5C457 268.3 503 267.7 548.8 269.3C594.7 271 640.3 275 686 277C731.7 279 777.3 279 823 280.2C868.7 281.3 914.3 283.7 937.2 284.8L960 286L960 301L937.2 301C914.3 301 868.7 301 823 301C777.3 301 731.7 301 686 301C640.3 301 594.7 301 548.8 301C503 301 457 301 411.2 301C365.3 301 319.7 301 274 301C228.3 301 182.7 301 137 301C91.3 301 45.7 301 22.8 301L0 301Z" fill="#fff7ed"></path></svg>