<svg id="visual" viewBox="0 0 960 300" width="960" height="300" xmlns="http://www.w3.org/2000/svg" xmlns:xlink="http://www.w3.org/1999/xlink" version="1.1"><path d="M0 208L22.8 207.8C45.7 207.7 91.3 207.3 137 207.8C182.7 208.3 228.3 209.7 274 207.2C319.7 204.7 365.3 198.3 411.2 192.3C457 186.3 503 180.7 548.8 185C594.7 189.3 640.3 203.7 686 211.8C731.7 220 777.3 222 823 216.2C868.7 210.3 914.3 196.7 937.2 189.8L960 183L960 301L937.2 301C914.3 301 868.7 301 823 301C777.3 301 731.7 301 686 301C640.3 301 594.7 301 548.8 301C503 301 457 301 411.2 301C365.3 301 319.7 301 274 301C228.3 301 182.7 301 137 301C91.3 301 45.7 301 22.8 301L0 301Z" fill="#fed7aa"></path><path d="M0 234L22.8 228.2C45.7 222.3 91.3 210.7 137 209C182.7 207.3 228.3 215.7 274 217.5C319.7 219.3 365.3 214.7 411.2 210C457 205.3 503 200.7 548.8 201.7C594.7 202.7 640.3 209.3 686 213.8C731.7 218.3 777.3 220.7 823 220.3C868.7 220 914.3 217 937.2 215.5L960 214L960 301L937.2 301C914.3 301 868.7 301 823 301C777.3 301 731.7 301 686 301C640.3 301 594.7 301 548.8 301C503 301 457 301 411.2 301C365.3 301 319.7 301 274 301C228.3 301 182.7 301 137 301C91.3 301 45.7 301 22.8 301L0 301Z" fill="#ffdfba"></path><path d="M0 242L22.8 238.8C45.7 235.7 91.3 229.3 137 230.7C182.7 232 228.3 241 274 243C319.7 245 365.3 240 411.2 240C457 240 503 245 548.8 246C594.7 247 640.3 244 686 244.8C731.7 245.7 777.3 250.3 823 247.8C868.7 245.3 914.3 235.7 937.2 230.8L960 226L960 301L937.2 301C914.3 301 868.7 301 823 301C777.3 301 731.7 301 686 301C640.3 301 594.7 301 548.8 301C503 301 457 301 411.2 301C365.3 301 319.7 301 274 301C228.3 301 182.7 301 137 301C91.3 301 45.7 301 22.8 301L0 301Z" fill="#ffe7cb"></path><path d="M0 251L22.8 251.8C45.7 252.7 91.3 254.3 137 256.3C182.7 258.3 228.3 260.7 274 262.3C319.7 264 365.3 265 411.2 265.7C457 266.3 503 266.7 548.8 266C594.7 265.3 640.3 263.7 686 262.5C731.7 261.3 777.3 260.7 823 257.2C868.7 253.7 914.3 247.3 937.2 244.2L960 241L960 301L937.2 301C914.3 301 868.7 301 823 301C777.3 301 731.7 301 686 301C640.3 301 594.7 301 548.8 301C503 301 457 301 411.2 301C365.3 301 319.7 301 274 301C228.3 301 182.7 301 137 301C91.3 301 45.7 301 22.8 301L0 301Z" fill="#ffefdc"></path><path d="M0 278L22.8 276.5C45.7 275 91.3 272 137 272C182.7 272 228.3 275 274 274.3C319.7 273.7 365.3 269.3 411.2 267.3C457 265.3 503 265.7 548.8 266.3C594.7 267 640.3 268 686 270.3C731.7 272.7 777.3 276.3 823 278.7C868.7 281 914.3 282 937.2 282.5L960 283L960 301L937.2 301C914.3 301 868.7 301 823 301C777.3 301 731.7 301 686 301C640.3 301 594.7 301 548.8 301C503 301 457 301 411.2 301C365.3 301 319.7 301 274 301C228.3 301 182.7 301 137 301C91.3 301 45.7 301 22.8 301L0 301Z" fill="#fff7ed"></path></svg>