<svg id="visual" viewBox="0 0 900 200" width="900" height="200" xmlns="http://www.w3.org/2000/svg" xmlns:xlink="http://www.w3.org/1999/xlink" version="1.1"><rect x="0" y="0" width="900" height="200" fill="#fff"></rect><path d="M0 124L21.5 122.8C43 121.7 86 119.3 128.8 123.2C171.7 127 214.3 137 257.2 140.3C300 143.7 343 140.3 385.8 136.5C428.7 132.7 471.3 128.3 514.2 125.5C557 122.7 600 121.3 642.8 123C685.7 124.7 728.3 129.3 771.2 130.2C814 131 857 128 878.5 126.5L900 125L900 201L878.5 201C857 201 814 201 771.2 201C728.3 201 685.7 201 642.8 201C600 201 557 201 514.2 201C471.3 201 428.7 201 385.8 201C343 201 300 201 257.2 201C214.3 201 171.7 201 128.8 201C86 201 43 201 21.5 201L0 201Z" fill="#fed7aa"></path><path d="M0 145L21.5 147.3C43 149.7 86 154.3 128.8 155.8C171.7 157.3 214.3 155.7 257.2 151.7C300 147.7 343 141.3 385.8 137.5C428.7 133.7 471.3 132.3 514.2 134.3C557 136.3 600 141.7 642.8 142C685.7 142.3 728.3 137.7 771.2 139.7C814 141.7 857 150.3 878.5 154.7L900 159L900 201L878.5 201C857 201 814 201 771.2 201C728.3 201 685.7 201 642.8 201C600 201 557 201 514.2 201C471.3 201 428.7 201 385.8 201C343 201 300 201 257.2 201C214.3 201 171.7 201 128.8 201C86 201 43 201 21.5 201L0 201Z" fill="#ffdfba"></path><path d="M0 169L21.5 165.8C43 162.7 86 156.3 128.8 156.3C171.7 156.3 214.3 162.7 257.2 162C300 161.3 343 153.7 385.8 152.7C428.7 151.7 471.3 157.3 514.2 160.3C557 163.3 600 163.7 642.8 161C685.7 158.3 728.3 152.7 771.2 150.5C814 148.3 857 149.7 878.5 150.3L900 151L900 201L878.5 201C857 201 814 201 771.2 201C728.3 201 685.7 201 642.8 201C600 201 557 201 514.2 201C471.3 201 428.7 201 385.8 201C343 201 300 201 257.2 201C214.3 201 171.7 201 128.8 201C86 201 43 201 21.5 201L0 201Z" fill="#ffe7cb"></path><path d="M0 171L21.5 172.5C43 174 86 177 128.8 177.5C171.7 178 214.3 176 257.2 175.3C300 174.7 343 175.3 385.8 173.8C428.7 172.3 471.3 168.7 514.2 166.5C557 164.3 600 163.7 642.8 166.2C685.7 168.7 728.3 174.3 771.2 175.5C814 176.7 857 173.3 878.5 171.7L900 170L900 201L878.5 201C857 201 814 201 771.2 201C728.3 201 685.7 201 642.8 201C600 201 557 201 514.2 201C471.3 201 428.7 201 385.8 201C343 201 300 201 257.2 201C214.3 201 171.7 201 128.8 201C86 201 43 201 21.5 201L0 201Z" fill="#ffefdc"></path><path d="M0 183L21.5 182.8C43 182.7 86 182.3 128.8 182.3C171.7 182.3 214.3 182.7 257.2 183.5C300 184.3 343 185.7 385.8 184.3C428.7 183 471.3 179 514.2 178C557 177 600 179 642.8 181.2C685.7 183.3 728.3 185.7 771.2 187C814 188.3 857 188.7 878.5 188.8L900 189L900 201L878.5 201C857 201 814 201 771.2 201C728.3 201 685.7 201 642.8 201C600 201 557 201 514.2 201C471.3 201 428.7 201 385.8 201C343 201 300 201 257.2 201C214.3 201 171.7 201 128.8 201C86 201 43 201 21.5 201L0 201Z" fill="#fff7ed"></path></svg>